<?xml version="1.0" encoding="UTF-8" standalone="no"?>
<!-- Created with Inkscape (http://www.inkscape.org/) -->

<svg
   xmlns:dc="http://purl.org/dc/elements/1.1/"
   xmlns:cc="http://creativecommons.org/ns#"
   xmlns:rdf="http://www.w3.org/1999/02/22-rdf-syntax-ns#"
   xmlns:svg="http://www.w3.org/2000/svg"
   xmlns="http://www.w3.org/2000/svg"
   xmlns:sodipodi="http://sodipodi.sourceforge.net/DTD/sodipodi-0.dtd"
   xmlns:inkscape="http://www.inkscape.org/namespaces/inkscape"
   width="210mm"
   height="297mm"
   id="svg2"
   version="1.1"
   inkscape:version="0.48.4 r9939"
   sodipodi:docname="Nouveau document 1">
  <defs
     id="defs4" />
  <sodipodi:namedview
     id="base"
     pagecolor="#ffffff"
     bordercolor="#666666"
     borderopacity="1.0"
     inkscape:pageopacity="0.0"
     inkscape:pageshadow="2"
     inkscape:zoom="0.35"
     inkscape:cx="375"
     inkscape:cy="520"
     inkscape:document-units="px"
     inkscape:current-layer="layer1"
     showgrid="false"
     inkscape:snap-page="false"
     inkscape:window-width="977"
     inkscape:window-height="744"
     inkscape:window-x="47"
     inkscape:window-y="24"
     inkscape:window-maximized="1" />
  <metadata
     id="metadata7">
    <rdf:RDF>
      <cc:Work
         rdf:about="">
        <dc:format>image/svg+xml</dc:format>
        <dc:type
           rdf:resource="http://purl.org/dc/dcmitype/StillImage" />
        <dc:title></dc:title>
      </cc:Work>
    </rdf:RDF>
  </metadata>
  <g
     inkscape:label="Calque 1"
     inkscape:groupmode="layer"
     id="layer1">
    <path
       style="fill:#000080"
       d="m 366.90325,416.64789 c -1.25478,-3.14285 -24.99548,-72.57142 -52.75711,-154.28571 l -50.47568,-148.57143 7.52191,-1.82968 c 8.18514,-1.99102 223.07115,-9.42064 224.39145,-7.75827 0.44405,0.55909 -27.8141,72.37367 -62.79589,159.58795 -48.26298,120.32606 -64.1535,157.19323 -65.88468,152.85714 z"
       id="path3005"
       inkscape:connector-curvature="0" />
    <path
       style="fill:#ff0000"
       d="m 463.59751,263.79076 c 5.35878,-16.62152 66.45088,-176.228862 68.22315,-178.237742 2.21704,-2.513016 54.03648,42.874252 54.03648,47.329102 0,1.28696 -24.59734,29.01789 -54.66076,61.62428 -63.97096,69.38208 -69.43636,74.98375 -67.59887,69.28436 z"
       id="path3007"
       inkscape:connector-curvature="0" />
    <path
       style="fill:#ffaaaa"
       d="m 403.00001,422.2015 c 9.86225,-12.37041 175.47357,-208.89072 180.44714,-214.12503 5.41236,-5.6961 5.45116,-5.687 12.18686,2.85714 3.71647,4.71429 21.54774,27.34939 39.62504,50.30022 l 32.86781,41.72879 -131.44579,61.12835 c -72.29518,33.6206 -132.91301,61.65887 -134.70628,62.30727 -1.79327,0.64841 -1.33192,-1.24012 1.02522,-4.19674 z"
       id="path3009"
       inkscape:connector-curvature="0" />
    <path
       style="fill:#808000"
       d="m 369.52151,514.46199 c -14.33858,-47.49837 -25.85028,-86.55729 -25.58155,-86.79758 0.98545,-0.88117 232.99772,69.11165 234.68527,70.7992 0.9592,0.9592 -33.34265,20.74342 -76.22633,43.96493 -42.88368,23.2215 -84.45863,45.85989 -92.38878,50.30753 l -14.41845,8.08661 -26.07016,-86.36069 0,0 z"
       id="path3011"
       inkscape:connector-curvature="0" />
    <path
       style="fill:#916f6f"
       d="m 260.14285,556.49414 c -46.35714,-5.23856 -87.5,-9.91843 -91.42857,-10.39973 -5.43467,-0.66581 3.78956,-6.59377 38.57143,-24.78796 25.14286,-13.15209 62.48955,-32.73447 82.99264,-43.51641 l 37.27835,-19.60352 12.03697,40.65926 c 6.62032,22.36259 13.89071,46.7664 16.15641,54.23069 l 4.11945,13.57143 -7.72048,-0.31456 c -4.24626,-0.173 -45.64905,-4.60064 -92.0062,-9.8392 z"
       id="path3013"
       inkscape:connector-curvature="0" />
    <path
       style="fill:#00ff00"
       d="m 107.28571,370.18804 c 2.37187,-2.38994 45.43565,-30.39422 157.28746,-102.28365 l 14.43031,-9.27466 20.20806,51.09032 20.20807,51.09031 -8.92409,1.34672 c -4.90825,0.7407 -40.42409,2.72938 -78.92409,4.41929 -38.5,1.68991 -82.85714,3.84161 -98.57143,4.78157 -19.1854,1.14757 -27.63283,0.76325 -25.71429,-1.1699 z"
       id="path3015"
       inkscape:connector-curvature="0" />
    <path
       style="fill:#000080"
       d="m 147.52727,230.73196 c -9.21621,-43.18669 -16.24326,-79.03474 -15.61567,-79.66233 1.44459,-1.44459 99.6766,111.72653 99.61206,114.76105 -0.0263,1.23518 -11.27628,9.00919 -25,17.27558 -13.72373,8.26638 -28.8419,17.53115 -33.59594,20.58836 l -8.6437,5.55859 -16.75675,-78.52125 z"
       id="path3017"
       inkscape:connector-curvature="0" />
    <path
       style="fill:#ffff00"
       d="m 160.85048,133.22298 c -22.38919,-10.43612 -40.70762,-19.73668 -40.70762,-20.66791 0,-1.86925 106.00408,-55.304718 106.95781,-53.91623 0.32724,0.47641 -5.28597,21.72205 -12.4738,47.21253 l -13.06877,46.34634 -40.70762,-18.97473 0,0 z"
       id="path3019"
       inkscape:connector-curvature="0" />
  </g>
</svg>
